<?xml version="1.0" standalone="no"?>
<!DOCTYPE svg PUBLIC "-//W3C//DTD SVG 20010904//EN"
 "http://www.w3.org/TR/2001/REC-SVG-20010904/DTD/svg10.dtd">
<svg version="1.0" xmlns="http://www.w3.org/2000/svg"
 width="400.000000pt" height="400.000000pt" viewBox="0 0 400.000000 400.000000"
 preserveAspectRatio="xMidYMid meet">
<metadata>
Created by potrace 1.16, written by Peter Selinger 2001-2019
</metadata>
<g transform="translate(0.000000,400.000000) scale(0.100000,-0.100000)"
fill="#000000" stroke="none">
<path d="M175 2116 c-15 -11 -19 -26 -19 -71 0 -82 6 -85 187 -85 l148 0 -3
-32 -3 -33 -172 -3 c-97 -1 -173 -7 -173 -12 0 -5 10 -16 22 -24 18 -13 55
-16 195 -16 160 0 175 2 193 20 27 27 27 99 1 131 -18 23 -26 24 -170 27
l-151 4 0 29 0 29 160 0 c134 0 160 2 160 15 0 28 -39 35 -197 35 -120 0 -164
-3 -178 -14z"/>
<path d="M690 1985 l0 -145 40 0 40 0 0 55 0 55 138 0 c179 0 187 4 187 90 0
88 -3 90 -227 90 l-178 0 0 -145z m315 55 l0 -35 -115 0 c-113 0 -115 0 -118
23 -7 50 -1 53 120 50 l113 -3 0 -35z"/>
<path d="M1281 2101 l-20 -28 34 -49 c19 -27 35 -55 35 -61 0 -10 -23 -13 -83
-13 -76 0 -86 -2 -107 -25 l-23 -25 131 0 131 0 23 -30 c19 -26 28 -30 70 -30
26 0 48 2 48 5 0 7 -210 285 -215 285 -2 0 -13 -13 -24 -29z"/>
<path d="M1651 2111 c-19 -19 -21 -33 -21 -129 0 -148 -9 -142 204 -142 167 0
206 7 206 35 0 13 -26 15 -160 15 l-160 0 0 95 0 95 165 2 c164 3 166 3 151
23 -13 18 -28 20 -190 23 -165 3 -176 2 -195 -17z"/>
<path d="M2170 2100 l0 -30 198 2 197 3 3 28 3 27 -200 0 -201 0 0 -30z"/>
<path d="M2170 1935 l0 -95 195 0 195 0 0 25 0 25 -150 0 -150 0 0 45 0 45 90
0 c89 0 90 0 90 25 l0 25 -135 0 -135 0 0 -95z"/>
<path d="M2970 1961 c-19 -16 -33 -31 -30 -34 3 -2 31 -23 63 -46 56 -41 59
-42 130 -39 l72 3 -97 73 c-54 39 -99 72 -100 72 -2 0 -19 -14 -38 -29z"/>
</g>
</svg>
